<svg width="24" height="24" viewBox="0 0 24 24" fill="none" xmlns="http://www.w3.org/2000/svg">
<path d="M6.233 5.834L6.678 3.608C6.76866 3.15444 7.01371 2.74633 7.37144 2.45314C7.72918 2.15995 8.17747 1.99982 8.64 2H15.36C15.8225 1.99982 16.2708 2.15995 16.6286 2.45314C16.9863 2.74633 17.2313 3.15444 17.322 3.608L17.767 5.834C17.8369 6.18279 18.0043 6.50459 18.2498 6.76198C18.4953 7.01938 18.8089 7.20178 19.154 7.288C19.967 7.49138 20.6887 7.96068 21.2044 8.6213C21.72 9.28192 22.0001 10.0959 22 10.934V18C22 19.0609 21.5786 20.0783 20.8284 20.8284C20.0783 21.5786 19.0609 22 18 22H6C4.93913 22 3.92172 21.5786 3.17157 20.8284C2.42143 20.0783 2 19.0609 2 18V10.934C1.99992 10.0959 2.27998 9.28192 2.79564 8.6213C3.31131 7.96068 4.033 7.49138 4.846 7.288C5.19111 7.20178 5.50466 7.01938 5.75019 6.76198C5.99572 6.50459 6.16315 6.18279 6.233 5.834V5.834Z" stroke="black" stroke-width="2" stroke-linecap="round" stroke-linejoin="round"/>
<path d="M12 18C14.2091 18 16 16.2091 16 14C16 11.7909 14.2091 10 12 10C9.79086 10 8 11.7909 8 14C8 16.2091 9.79086 18 12 18Z" stroke="black" stroke-width="2" stroke-linecap="round" stroke-linejoin="round"/>
<path d="M11 6H13" stroke="black" stroke-width="2" stroke-linecap="round" stroke-linejoin="round"/>
</svg>
