<svg width="289" height="288" viewBox="0 0 289 288" fill="none" xmlns="http://www.w3.org/2000/svg">
<rect y="7.62939e-06" width="55" height="10" rx="5" fill="white"/>
<rect x="0.31778" y="55.0569" width="55" height="10" rx="5" transform="rotate(-90.331 0.31778 55.0569)" fill="white"/>
<rect x="2" y="288" width="55" height="10" rx="5" transform="rotate(-90 2 288)" fill="white"/>
<rect x="57.0569" y="287.682" width="55" height="10" rx="5" transform="rotate(179.669 57.0569 287.682)" fill="white"/>
<rect x="289" y="283.057" width="55" height="10" rx="5" transform="rotate(180 289 283.057)" fill="white"/>
<rect x="288.682" y="228" width="55" height="10" rx="5" transform="rotate(89.669 288.682 228)" fill="white"/>
<rect x="288.03" y="0.0284271" width="55" height="10" rx="5" transform="rotate(90 288.03 0.0284271)" fill="white"/>
<rect x="232.973" y="0.346207" width="55" height="10" rx="5" transform="rotate(-0.331042 232.973 0.346207)" fill="white"/>
</svg>
